<svg width="24" height="24" viewBox="0 0 24 24" fill="none" xmlns="http://www.w3.org/2000/svg">
<path d="M16.4806 2H7.51916C4.4759 2 2 4.47601 2 7.51928V16.4807C2 19.5241 4.4759 22 7.51916 22H16.4806C19.5241 22 22 19.524 22 16.4807V7.51928C22.0001 4.47601 19.5241 2 16.4806 2ZM20.2256 16.4807C20.2256 18.5456 18.5456 20.2255 16.4807 20.2255H7.51916C5.45435 20.2256 3.7745 18.5456 3.7745 16.4807V7.51928C3.7745 5.45447 5.45435 3.7745 7.51916 3.7745H16.4806C18.5455 3.7745 20.2255 5.45447 20.2255 7.51928V16.4807H20.2256Z" fill="black"/>
<path d="M12 6.84644C9.15833 6.84644 6.84651 9.15825 6.84651 11.9999C6.84651 14.8415 9.15833 17.1532 12 17.1532C14.8417 17.1532 17.1535 14.8415 17.1535 11.9999C17.1535 9.15825 14.8417 6.84644 12 6.84644ZM12 15.3786C10.1369 15.3786 8.62101 13.8629 8.62101 11.9998C8.62101 10.1366 10.1368 8.62081 12 8.62081C13.8632 8.62081 15.379 10.1366 15.379 11.9998C15.379 13.8629 13.8631 15.3786 12 15.3786Z" fill="black"/>
<path d="M17.3696 5.34253C17.0278 5.34253 16.6919 5.48094 16.4504 5.72345C16.2078 5.96479 16.0683 6.30076 16.0683 6.64383C16.0683 6.98583 16.2079 7.32168 16.4504 7.5642C16.6918 7.80553 17.0278 7.94512 17.3696 7.94512C17.7127 7.94512 18.0475 7.80553 18.29 7.5642C18.5325 7.32168 18.6709 6.98571 18.6709 6.64383C18.6709 6.30076 18.5325 5.96479 18.29 5.72345C18.0487 5.48094 17.7127 5.34253 17.3696 5.34253Z" fill="black"/>
</svg>
