<svg width="24" height="24" viewBox="0 0 24 24" fill="none" xmlns="http://www.w3.org/2000/svg">
<path d="M8.2896 20.251C15.8368 20.251 19.9648 13.9982 19.9648 8.57584C19.9648 8.39824 19.9648 8.22144 19.9528 8.04544C20.7559 7.46457 21.4491 6.74534 22 5.92144C21.2511 6.25328 20.4567 6.4709 19.6432 6.56704C20.4998 6.05423 21.1409 5.24766 21.4472 4.29744C20.6417 4.7754 19.7605 5.11225 18.8416 5.29344C18.2229 4.63559 17.4047 4.19997 16.5135 4.05401C15.6223 3.90805 14.7078 4.05987 13.9116 4.48598C13.1154 4.9121 12.4819 5.58875 12.109 6.41123C11.7361 7.23371 11.6446 8.15616 11.8488 9.03584C10.2174 8.95405 8.62144 8.5301 7.16451 7.79151C5.70759 7.05292 4.42227 6.01619 3.392 4.74864C2.86727 5.65197 2.70656 6.72133 2.94258 7.73899C3.17861 8.75665 3.79362 9.6461 4.6624 10.2262C4.00939 10.2069 3.37062 10.0307 2.8 9.71264C2.8 9.72944 2.8 9.74704 2.8 9.76464C2.80026 10.712 3.12821 11.6301 3.72823 12.3633C4.32824 13.0964 5.16338 13.5994 6.092 13.787C5.4879 13.9518 4.85406 13.9759 4.2392 13.8574C4.50141 14.6728 5.01189 15.3858 5.69926 15.8967C6.38662 16.4076 7.21649 16.691 8.0728 16.707C6.61979 17.849 4.82485 18.4689 2.9768 18.467C2.65032 18.4664 2.32416 18.4466 2 18.4078C3.87651 19.6121 6.05993 20.2508 8.2896 20.2478" fill="black"/>
</svg>
