<svg id="Layer_1" data-name="Layer 1" xmlns="http://www.w3.org/2000/svg" width="7543.809" height="856.386" viewBox="0 0 7543.809 856.386">
  <g>
    <path d="M2878.63,30.067h-51a13.671,13.671,0,0,0-14,14v610c0,7-4,9-10,4l-656-621c-13-13-35-10-35,6v773c0,8,4,14,12,14h53c8,0,13-6,13-14v-612c0-7,5-9,10-4l656,623c12,12,35,11,35-7v-772C2891.63,36.067,2886.63,30.067,2878.63,30.067Z"/>
    <path d="M1378.63,34.067c-4-8-10-8-14,0l-384,784c-3,7,0,12,7,12h61c6,0,14-3,17-10l72.321-147h464.525l71.154,147c3,7,10,10,17,10h60c7,0,11-5,7-12Zm-13,176c3-6,9-6,12,0l188.023,387H1173.042Z"/>
    <path d="M800.63,30.067h-60c-7,0-15,2-18,9l-296,611c-3,6-7,6-10,0l-302-611c-3-7-11-9-17-9h-60c-7,0-10,5-7,12l385,782q6,12,12,0l380-782C810.63,35.067,807.63,30.067,800.63,30.067Z"/>
    <path d="M7499.63,30.067h-753c-7,0-12,6-12,13v773c0,8,4,14,12,14h53c8,0,13-6,13-14v-336c0-9,5-13,14-13h319a13.671,13.671,0,0,0,14-14v-49c0-8-6-13-14-13h-319c-9,0-14-5-14-14v-257c0-9,5-14,14-14h673c8,0,14-7,14-15v-47A13.671,13.671,0,0,0,7499.63,30.067Z"/>
    <path d="M4082.63,30.067h-55c-8,0-14,2-17,9l-297,611c-3,6-8,6-11,0l-296-611c-4-8-10-9-17-9h-56c-8,0-13,6-13,14v772c0,8,5,14,13,14h53c8,0,12-6,12-14v-616l304,625c3,7,8,7,11,0l304-626v617c0,8,5,14,13,14h52c8,0,13-6,13-14v-772C4095.63,36.067,4090.63,30.067,4082.63,30.067Z"/>
    <path d="M5985.63,25.067c-217,0-395,182-395,405s178,405,395,405c218,0,396-182,396-405S6203.63,25.067,5985.63,25.067Zm0,730c-173,0-315-146-315-325s142-325,315-325c174,0,316,146,316,325S6159.63,755.067,5985.63,755.067Z"/>
    <path d="M4844.63,25.067c-217,0-395,182-395,405s178,405,395,405c218,0,396-182,396-405S5062.63,25.067,4844.63,25.067Zm0,730c-173,0-315-146-315-325s142-325,315-325c174,0,316,146,316,325S5018.63,755.067,4844.63,755.067Z"/>
  </g>
</svg>
